<mxfile host="www.draw.io" modified="2020-01-03T03:39:03.307Z" agent="Mozilla/5.0 (Macintosh; Intel Mac OS X 10_14_0) AppleWebKit/537.36 (KHTML, like Gecko) Chrome/79.0.3945.88 Safari/537.36" etag="fB6mUP3xDnhd1_LwfK7X" version="12.4.8" type="github">
  <diagram id="ApW3DDrOjDALBpVBkcUd" name="Page-1">
    <mxGraphModel dx="1149" dy="591" grid="1" gridSize="10" guides="1" tooltips="1" connect="1" arrows="1" fold="1" page="1" pageScale="1" pageWidth="827" pageHeight="1169" math="0" shadow="0">
      <root>
        <mxCell id="0"/>
        <mxCell id="1" parent="0"/>
        <mxCell id="ss-dwth7yBQRLIjQmPeW-2" value="" style="edgeStyle=orthogonalEdgeStyle;rounded=0;orthogonalLoop=1;jettySize=auto;html=1;" parent="1" source="1QEzGHq1Pu8JiyIyR0i3-1" target="1QEzGHq1Pu8JiyIyR0i3-2" edge="1">
          <mxGeometry relative="1" as="geometry"/>
        </mxCell>
        <mxCell id="1QEzGHq1Pu8JiyIyR0i3-1" value="人工配置" style="rounded=1;whiteSpace=wrap;html=1;" parent="1" vertex="1">
          <mxGeometry x="130" y="100" width="120" height="60" as="geometry"/>
        </mxCell>
        <mxCell id="ss-dwth7yBQRLIjQmPeW-4" value="" style="edgeStyle=orthogonalEdgeStyle;rounded=0;orthogonalLoop=1;jettySize=auto;html=1;entryX=0.5;entryY=0;entryDx=0;entryDy=0;" parent="1" source="1QEzGHq1Pu8JiyIyR0i3-2" target="ss-dwth7yBQRLIjQmPeW-1" edge="1">
          <mxGeometry relative="1" as="geometry">
            <mxPoint x="190" y="350" as="targetPoint"/>
          </mxGeometry>
        </mxCell>
        <mxCell id="ss-dwth7yBQRLIjQmPeW-6" value="" style="edgeStyle=orthogonalEdgeStyle;rounded=0;orthogonalLoop=1;jettySize=auto;html=1;entryX=0.5;entryY=0;entryDx=0;entryDy=0;" parent="1" source="1QEzGHq1Pu8JiyIyR0i3-2" target="1QEzGHq1Pu8JiyIyR0i3-3" edge="1">
          <mxGeometry relative="1" as="geometry">
            <mxPoint x="190" y="350" as="targetPoint"/>
          </mxGeometry>
        </mxCell>
        <mxCell id="1QEzGHq1Pu8JiyIyR0i3-2" value="自动构建" style="rounded=1;whiteSpace=wrap;html=1;" parent="1" vertex="1">
          <mxGeometry x="130" y="210" width="120" height="60" as="geometry"/>
        </mxCell>
        <mxCell id="1QEzGHq1Pu8JiyIyR0i3-3" value="日常构建版本" style="rounded=1;whiteSpace=wrap;html=1;" parent="1" vertex="1">
          <mxGeometry x="30" y="320" width="120" height="60" as="geometry"/>
        </mxCell>
        <mxCell id="ss-dwth7yBQRLIjQmPeW-1" value="正式构建版本" style="rounded=1;whiteSpace=wrap;html=1;" parent="1" vertex="1">
          <mxGeometry x="240" y="320" width="120" height="60" as="geometry"/>
        </mxCell>
        <mxCell id="nZFrfJ3mJIVUbRnAhzXt-1" value="" style="endArrow=none;dashed=1;html=1;" edge="1" parent="1">
          <mxGeometry width="50" height="50" relative="1" as="geometry">
            <mxPoint x="830" y="80" as="sourcePoint"/>
            <mxPoint x="1780" y="80" as="targetPoint"/>
          </mxGeometry>
        </mxCell>
        <mxCell id="nZFrfJ3mJIVUbRnAhzXt-2" value="人工配置" style="text;html=1;strokeColor=none;fillColor=none;align=center;verticalAlign=middle;whiteSpace=wrap;rounded=0;" vertex="1" parent="1">
          <mxGeometry x="860" y="100" width="50" height="20" as="geometry"/>
        </mxCell>
        <mxCell id="nZFrfJ3mJIVUbRnAhzXt-3" value="" style="endArrow=none;dashed=1;html=1;" edge="1" parent="1">
          <mxGeometry width="50" height="50" relative="1" as="geometry">
            <mxPoint x="827" y="400" as="sourcePoint"/>
            <mxPoint x="1777" y="400" as="targetPoint"/>
          </mxGeometry>
        </mxCell>
        <mxCell id="nZFrfJ3mJIVUbRnAhzXt-4" value="" style="endArrow=none;dashed=1;html=1;" edge="1" parent="1">
          <mxGeometry width="50" height="50" relative="1" as="geometry">
            <mxPoint x="827" y="239.5" as="sourcePoint"/>
            <mxPoint x="1777" y="239.5" as="targetPoint"/>
          </mxGeometry>
        </mxCell>
        <mxCell id="nZFrfJ3mJIVUbRnAhzXt-5" value="自动构建" style="text;html=1;strokeColor=none;fillColor=none;align=center;verticalAlign=middle;whiteSpace=wrap;rounded=0;" vertex="1" parent="1">
          <mxGeometry x="860" y="260" width="50" height="20" as="geometry"/>
        </mxCell>
        <mxCell id="nZFrfJ3mJIVUbRnAhzXt-8" value="指定分支" style="rounded=1;whiteSpace=wrap;html=1;" vertex="1" parent="1">
          <mxGeometry x="990" y="110" width="110" height="50" as="geometry"/>
        </mxCell>
        <mxCell id="nZFrfJ3mJIVUbRnAhzXt-9" value="指定版本" style="rounded=1;whiteSpace=wrap;html=1;" vertex="1" parent="1">
          <mxGeometry x="1140" y="110" width="110" height="50" as="geometry"/>
        </mxCell>
      </root>
    </mxGraphModel>
  </diagram>
</mxfile>
